<mxfile host="65bd71144e">
    <diagram id="HIP3nbAZw_EuaXWnEj3U" name="Page-1">
        <mxGraphModel dx="1330" dy="865" grid="1" gridSize="10" guides="1" tooltips="1" connect="1" arrows="1" fold="1" page="1" pageScale="1" pageWidth="850" pageHeight="1100" math="0" shadow="0">
            <root>
                <mxCell id="0"/>
                <mxCell id="1" parent="0"/>
                <mxCell id="7" value="http://ics2o.mths.ca" style="swimlane;whiteSpace=wrap;html=1;" vertex="1" parent="1">
                    <mxGeometry x="45" y="170" width="760" height="510" as="geometry"/>
                </mxCell>
                <mxCell id="8" value="&lt;h1 style=&quot;margin-top: 0px; line-height: 270%;&quot;&gt;&lt;font style=&quot;font-size: 30px;&quot;&gt;volume of a sphere, with a&amp;nbsp;Query String&lt;/font&gt;&lt;/h1&gt;" style="text;html=1;whiteSpace=wrap;overflow=hidden;rounded=0;" vertex="1" parent="7">
                    <mxGeometry x="20" y="20" width="620" height="70" as="geometry"/>
                </mxCell>
                <mxCell id="9" value="&lt;div style=&quot;line-height: 170%;&quot;&gt;&lt;font style=&quot;font-size: 26px;&quot;&gt;formula&lt;/font&gt;&lt;div&gt;&lt;font style=&quot;font-size: 26px;&quot;&gt;v = 4/3&lt;/font&gt;&lt;span style=&quot;font-family: XITSMath-Regular, Arial, sans-serif; font-size: 27px; font-style: italic; text-wrap-mode: nowrap;&quot;&gt;&lt;font style=&quot;color: rgb(0, 0, 0);&quot;&gt;Ï€&lt;/font&gt;&lt;/span&gt;&lt;span&gt;&lt;font style=&quot;color: rgb(0, 0, 0);&quot;&gt;&lt;div style=&quot;text-wrap-mode: nowrap; display: inline-block; position: relative; transition: color 0.05s ease-in-out; margin: -4px; padding: 4px; font-style: italic; font-family: XITSMath-Regular, Arial, sans-serif; font-size: 27px; cursor: pointer;&quot; role=&quot;link&quot; data-var=&quot;r&quot; class=&quot;lr-fy-el lr-fy-eq-elem&quot;&gt;r&lt;/div&gt;&lt;div style=&quot;text-wrap-mode: nowrap; display: inline-block; position: relative; transition: color 0.05s ease-in-out; font-family: XITSMath-Regular, Arial, sans-serif; margin-left: 0.15em; vertical-align: top; font-size: 13.5px;&quot; class=&quot;lr-fy-ecv lr-fy-eq-elem&quot;&gt;3&lt;/div&gt;&lt;/font&gt;&lt;/span&gt;&lt;/div&gt;&lt;/div&gt;" style="text;html=1;align=left;verticalAlign=middle;whiteSpace=wrap;rounded=0;" vertex="1" parent="7">
                    <mxGeometry x="20" y="80" width="240" height="90" as="geometry"/>
                </mxCell>
                <mxCell id="10" value="&lt;div&gt;&lt;font style=&quot;font-size: 26px;&quot;&gt;Dimensions are:&lt;/font&gt;&lt;/div&gt;&lt;div&gt;&lt;font style=&quot;font-size: 26px;&quot;&gt;&lt;br&gt;&lt;/font&gt;&lt;/div&gt;&lt;div&gt;&lt;font style=&quot;&quot;&gt;&lt;div style=&quot;background-color: transparent; text-wrap-mode: nowrap; scrollbar-color: rgb(226, 226, 226) rgb(251, 251, 251); display: inline-block; position: relative; transition: color 0.05s ease-in-out; margin: -4px; padding: 4px; font-style: italic; font-family: XITSMath-Regular, Arial, sans-serif; cursor: pointer; color: rgb(63, 63, 63);&quot; role=&quot;link&quot; data-var=&quot;r&quot; class=&quot;lr-fy-el lr-fy-eq-elem&quot;&gt;&lt;font style=&quot;font-size: 26px;&quot;&gt;r&lt;/font&gt;&lt;/div&gt;&lt;div style=&quot;font-size: 13.5px; background-color: transparent; text-wrap-mode: nowrap; scrollbar-color: rgb(226, 226, 226) rgb(251, 251, 251); display: inline-block; position: relative; transition: color 0.05s ease-in-out; font-family: XITSMath-Regular, Arial, sans-serif; margin-left: 0.15em; vertical-align: top; color: rgb(63, 63, 63);&quot; class=&quot;lr-fy-ecv lr-fy-eq-elem&quot;&gt;3&lt;/div&gt;&lt;span style=&quot;font-size: 26px;&quot;&gt;&amp;nbsp;= 8&lt;/span&gt;&lt;/font&gt;&lt;/div&gt;&lt;div&gt;&lt;div style=&quot;color: rgb(63, 63, 63); scrollbar-color: rgb(226, 226, 226) rgb(251, 251, 251); text-wrap-mode: nowrap; display: inline-block; position: relative; transition: color 0.05s ease-in-out; font-family: XITSMath-Regular, Arial, sans-serif; margin-left: 0.15em; vertical-align: top; font-size: 13.5px;&quot; class=&quot;lr-fy-ecv lr-fy-eq-elem&quot;&gt;&lt;br&gt;&lt;/div&gt;&lt;/div&gt;&lt;div&gt;&lt;div style=&quot;color: rgb(63, 63, 63); scrollbar-color: rgb(226, 226, 226) rgb(251, 251, 251); text-wrap-mode: nowrap; display: inline-block; position: relative; transition: color 0.05s ease-in-out; font-family: XITSMath-Regular, Arial, sans-serif; margin-left: 0.15em; vertical-align: top;&quot; class=&quot;lr-fy-ecv lr-fy-eq-elem&quot;&gt;&lt;font style=&quot;font-size: 26px;&quot;&gt;Volume is:&amp;nbsp;2144.660&lt;/font&gt;&lt;/div&gt;&lt;/div&gt;" style="text;html=1;align=left;verticalAlign=middle;whiteSpace=wrap;rounded=0;" vertex="1" parent="7">
                    <mxGeometry x="20" y="180" width="260" height="190" as="geometry"/>
                </mxCell>
                <mxCell id="11" value="" style="shape=image;verticalLabelPosition=bottom;labelBackgroundColor=default;verticalAlign=top;aspect=fixed;imageAspect=0;image=data:image/png,iVBORw0KGgoAAAANSUhEUgAAAZwAAAFPCAIAAAD2ie/vAAAAIGNIUk0AAHomAACAhAAA+gAAAIDoAAB1MAAA6mAAADqYAAAXcJy6UTwAAAAGYktHRAD/AP8A/6C9p5MAADeJSURBVHja7d19VFNnvi/wXyAhgRgSCCFRAgQJCgjlrbXiK74Upad4tVVbxzpTp+1Z7di71nTOrDv03LVmvLPWOWbu7Wl7b0+rc6aOztiWam3t6KxCabX4QnFUAikQeUkkGJCEEJIAgbyR3D82QUCQt4Qddn6fP1hJ2Nn57Vi+fZ797P08NI/HAwghRBUhZBeAEEK+hKGGEKIU+lS/sNsd/dZBu93hdLrILhIhhMZhMOhMZhiHHcFkhk34FW3Sc2o9vWabzc5Zwg5nMRkMOo1GI/sQEEJohMfjcTpdQzZ7/4CVxWLGRPPG/naSUNN3G0NDQ/nRXMwyhFAg83g8xl7L8PCwMJY/+uLEUOvpNYMHYvg8sqtFCKEZ6TGagQaj7bVxAwV2u8Nms/OjuWQXiRBCM8WP5tpsdrvdQTwdF2r91kHOEjb2OhFCiwiNRuMsYfdbB4mnE1tq4Swm2RUihNDshLOYk7fUnE4Xg0Gfyy4RQog8DAZ99OKziRffYt8TIbTojA0uvKMAIUQpGGoIIUrBUEMIUQqGGkKIUjDUEEKUgqGGEKIUDDWEEKVgqCGEKAVDDSFEKRhqCCFKwVBDCFEKhhpCiFIw1BBClOLDiYZc+h8vX61pbjdYXW4AAAhj8WNWrtqUvzaRN5f96SqOn5KbIbGoZH8W2V8TQmix8FGoWdVln36uMI5/0WEz3ldcLVXclBa+9GwuDxuFCCH/80moWW9+8bnCCMASZm0p3Lgijs0CALD1dzZXVXxfp7epKj77Vvja9jiyDxYhRH2+aD5ZahT3AYCXu+9Q0WMjiQYALE5c1o5DB9fxAcCsuKpwk32sCKEg4IuWWqfeCADAFS6b5Jf8dXmJVRXtITaLEUAAAKD/9vjJGjMv79Br2Z0X/l7VYrC63EBnC1esffrpPOEkBbnNzdfKrta0Gx0AIXRWVOLGnbtzH9rQpZd//fXI3iCEzhasWPf002M3837uwWLW5S+rO61uoPOTt+zamysAAABL89Wyq/IOo81FfEpc7qaijSt4ZP8DIYRmJ/TIkSOjT8yWfh6XM+t9hBnv3NYOgStMlLcy+qGmH21p5vr169fmJLJHXrDevV3XZWMx+2uv3L434AxhssJCXA6b1XC3Tt7BycwQjawiP6C+XddlA5qp6bq8xTJEY7GYdBh2OAZN6h/lvfw1K2MefEjntZOnLvzYZXW6aXQWK4zucQz1G9R18lZPfE5i5NjPBds9ZYthiMFiMcDhjHlsc1oMDazK838svX7XNOQCOosVRqc5bAMW7Z3btT3RGamCMEAIBbrR+PJFS42bt1oiL9NYlV++dz/hsdWrs1aKhezpksCsUQMrbuP+/WuFdAAwt5R99pXCrCn79Jr41Q38sRsaTeyVTx8sfoxHBwBHe8XJUrnJpqy6ujF1I4/YpOn851V6G7DiNu3fn0+0zVz6mvNnL6n1VV+Wxf/3IsmD3dlMZl72/jd2JNIBXA4XPQTAePXTvzdb3cB7bPcLO1YSAxrmlorzX8v1TRe+/EfiwSfZgBBaJHwyJMnO2rd3rYgFbpdZI684e/L9d2Rvv/en0xcqfmjqtDqmfteug2u93UPeiqKDm+IAwCi/2T5+O/6TP9lNJBoAhCUWbs9iAYBRf3/k9+arVc02AF7O3oP5o71NujBv774cHoBVcf2mbdwRJ+YXJhKb0cPoANB87abRDfTEwoNPrxwdouWtKNxfkEgH6Lx5dUI9CKFA5qPrLELiNr70y1/+tChXOtJGc9mMnUr51a9Ov//ee38qV5ofHiUQZOVLxr3AfuKxxBCAIVXz/bEv85LT+eO2E/H5AOB2OYmntpZ2AwDw09dMHF0VZq/gAcD99rtjX+UKxeMOuv1uuwuAnpyTO6E9xsrOSgwBsLarDX768hFCvufLVT5Zy7IK92QVAoDN2qlRNDY0N2v0VpfNWHfheHvHwVcL48akCWvpQ5fkhoj4HGi3WI3dAA/GHLh8wYSPYY4rWmc0AgAYb556Tz6xIpcNANzGDh2kix7sb1xG2vQ9QwDgUpe/9943D70fAMCs7xwZ4kAIBT7/LF3MYselro1LXVvoPbdlNcm/rsobe7KMxWDN4wPGMJuJ3qVryOaa09utxNttc3o7QijAzD/UOi+fKL1pcCU/U7I3Y5L9C/P27tS/V/qjzdjZAfAg1JxuH2UIi0UHcIUk7/wfe9Pn8PZwVigAAG/1y69tweYYQovf/M+p8ZcwXADQ3qKcaotJG2VWfadtwktunbEfAHjCWd16sJTPhZE+5lxwhTFhMNLHRAgtfvMPNdZjaXEA4FJdLVNZJ/m9u1OhMgMAjy8a97qu+cfxm1tv/djuBmAnJs+qxcRdtZIPAOZm+cRRSltd6dv/++333j+vcDzi/StXSugA0P7jzYnV6yqOy2Rv/9+TV+cWlwghMvhg9JOVtyU3CsBtVpx7//i5H9R660jH0mbt/LGi9I+n5RYAVvLGDcJxb3N3Xv64rNky8szcUnb6SicAPXHD5sTZfT5/dX4yC8D64/mT3zaPDrPaNFdLK9tdbhfEp2c98qK59LW5vBCA+5f/fE6u98afy6Q4/4XcDOBakrxKBAihxcIXAwUhcYUv7h3+9HOFEcyqq5+rrk7cIFy4du/e9Al9UC6PZ1GcP6agh7PowzabAwCA99jundmzHkBgZezda/jT6X8Y9TXnj9fSWUw6eHcI/NV7d66c5v2iLQcLjX+qUFtVFSffu8xi0sHjHTYITy56YSN/ugIQQoHDR6Of7OSiV3+df/dm9fXG5h7jSKCE0FlRwpUZG/OfTJxk3qGo/FeeHT5/4bLaaHMB0PmJq+dxr2Xc5ld/uVJe8U1Vi8FqG3IBAJ0jXLFmiptJHy4/e+8bic0/fHNV3mEceTuLH5ezsWjDSpwxCaHFhebxeEafaO7dlyQsm8feZoS4sRwkRSUv4OSPCCHfGI0vbIcghCgFQw0hRCkYagghSsFQQwhRCgkDBQgh5HM4UIAQoiYMNYQQpWCoIYQoBUMNIUQpGGoIIUrBUEMIUYqPbmjXVRw/JTePPuXmHnq9UDjtu+pKZeVQVLLfN7eA1pXKytsBgJd36LWnpv9w3/DtISCE5s0XoVZXKitvT9xR8lr2yAuKz2QnZcaF/VNXlJa3L2icIYQCkg+6n4qmdpAU7c9+8ErWC0WJ0F79rZ7so0MIBZ35t9T0ehNA1IQXs/aXjGulKT6TlWlGHifuKBmbgABEW8+S+9JrhaKxr3i7dWP7tpNOWDS6Qc1JWU0i8a6RCY4AYFyHVFEqq+bnceU17QC8cZ8IcFwm446tTVdx/NTd5SPbKEplZd75whMna4TqK46dvCt90FRUfCYrMxHdcEWprAx2FEG5dw+SopIXYHSHiRM/9JEHixB6pPmHmjBLypPXlMlkyin6m/qKYyflFm8Q1JXKymWlMD7XstMTy8vu1utB5E2EpnaQFI0mGuQdKnlKSOxKdkw/8YSdqPC1EmGprMziDS/FZ7IyDS/3pZJCEbGHk8dhNG7M8hpuUUnJw6Uu54K8SQHZI7/R1981c5dnibxB440YxWeyMlkpzLJz3V5enftSyX4RkbZlMhnvwdPy4xWi17ylTnewCKFH8kH3U/jUa4fyeADtZbIRx8d2POsuyy283Je8EZC9v0gC7dUV47umWekSMKsU3hcVSg0kpmYBgKJSbubm7h7JI2Hh7lyeRX657pEF6SqqNZC4w9sKExXuzuOZay4rvL/n5W2ZNI+ypDzQKL2b6RUqM0+aJfTWcMjbaJpj51qST9QjzFzOA+Dl7R7z1GzUwQwP9vr167KHXL9+ff7/jghRg28u6RA+9VpJSUlJyaFcLgCAueakTHa8QgcAoDdYALjCMb28rNREsNxVjF+iaeyL+m+r2yExPRuIdCOSZYQoazkXLIZHBorOaB6/dpUwczkP2pV1I0+5gsmbPuM2q7sst/CWZwq9/WvhmPdMiOAZeVCQSMidvIYZHez69evXr1//6FcQCma+XaFdWPh6SSGMdKPklYpConXD5U+/HtODHigoVGaQ5I82psw1J2U147blTV/JuBidKVHWcq6c6IEqmtqBm5vl3QlvBkfgEzM5WCLCiNYZJhpCE/g21LxEhfkSeZlJP9LGsBh1AONbJlyhCGBcYy0rXVJWplLoM+GuBRIfZNrcrjuz6HUA44JoJrlEnB9UKgCUGuDlPWg0mR8+gnFtN5+Z4cGOBhkmGkITzLv7qas4LpOV1k32qyihEEAo4I5EjJeiqX3SthvRA71cedc80vcEABGf6z3h5H136VQfN0rE541/k77+rnlmbbeRHuhnynYg+p4AIBRGAYwGNMBIP3GyjBzzqXq9abZf5ewOFttoCE1q3qEmKsyXQHv5yBm0EbqKag0vtyALACB7Sy7XLD9VOnICvq60TAOJ+ZON6GWnJ4K5XWMGSbq3nSYs3J3L05SNjjwoPitr5+ZuyZ5NSbqK8zXmqQYHHnpv1nIutGvagRj3BACArIJcnkV+8jPFgxogMX9ie0oojILRcQb9t+fllpl83rg9zOVgEULj+aD7mfVCSVZdqeyUTD76Ejf3UMlr3j96YeHrJcLPZGUyWRkAgPdKi8n2lC4pa/eOe44QFb72Ehw/5T3TNLMbsLJeKBF9e/ykt6RJroybEtEDNY8/YT9yycjIEXBzD5VMUkPWC4f0x06ObCQpOpRXfVI1y69yTgeLEBoLp/NGCFHBaHz5Z6BgcZLJZGSXMLmSkhKyS0Bo0cCWGkKICnDhFYQQNWGoIYQoBUMNIUQpGGoIIUrBUEMIUQqGGkKIUjDUEEKUgqGGEKIUDDWEEKVgqCGEKAVDDSFEKRhqCCFKwVBDCFEKhhpCiFIw1BBClIKhhhCiFAw1hBClYKghhCgFQw0hRCkYagghSsFQQwhRCoYaQohSMNQQQpSCoYYQohQMNYQQpWCoIYQoBUMNIUQpGGoIIUrBUJuTYe3Zf05PTj5aS3YhCKEJMNTmQvv5kbcu2cmuAiE0CQy1WbPfPvrKv1UzyS4DITQpDLVZGqx9519rXvzPI/lkF4IQmhSG2qwYLvzy56p/fvfgSrILQQhNAUNtFrTnSj5I/PDDPfFkF4IQmhKd7AIWDXvtO6/8l1T2VT6eTUMokGGozcxg7Tu/bXz5zydyIsiuBCH0SBhqM9H3zb/+XPWzC2+JyS4EITQdDLXpac+9+Z+iP5/DU2kILQYYatNRn37zv1b9/mIOnkpDaFGgeTye0Seae/clCcvILimw1MqS9/xpmm1eOaN+63GyC719NPn5jwAAXj2nLskhuxqEFtpofPmopab8oKD4He0Uv8z/t8qPXxjbd1Od3rX9SP3kG+98v/bdpyPJ/n7G4KenZz704rBBrTTYIVKaKQ4DEISSXSTUHv1uh1r9FkDt0eQ9R7cFQMgiRBLftdQGtdV/fPPl/6z13hLJLPj1J0deSI6NjGRO9jdv16nkl078u+yschAAAKLyf/WHI/vWSwWLopunO/vyurcq4ZVz6rcColGkMxhEAgEAANTKkssx1FDwGY0v3118GxGf/+YnHx4YzaT87btz4qMmTzQAYIqk+QeO/MvTAACQ/Mq5qx8f3rpIEi0AeRPNcO7lPXAOEw0FM9/eUcDM37rP+7jbbp1uc7u88msAKDj657fw+q95M5z9efKa31SSXQZCJPPxbVJMgcB78kzZYZhmY9WZ/zg9CAX/dmQfXv/lA4J9f1arq44W/GnPy+em++oRoi5f3/splo6eY1I9OtV0F47+n1rYdPTIXrz+y3dE+2R/KKhUdZBdB0Kk8fV1apGx8REAgwAAlaoOAMEU29krPyypHCw4+vt98eQPHc6eaN8J9b7578YfBBIpqMguAiHy+HyWDrH4Ce/Du9qpmmr2G+8c+cSe87u3sOPpa4azH6qOvhQQQ7IIkcLnoSZIWeF9WD1FL8he+8FvP9LmHJEdkJJ9+BRhOPdy8ogS+PcT+0RkF4QQeXx/m5RYWgBQCQAwqO3uA3joQlrln0s+UEt/dfGgdDF2PGfPcP2D3/3+o2/UfdNst/XdG/+1c0J33XD77EcnTpytUNlFO2VfvLtTBNCnPPv2b985X2sAwc7ff/7u7ngAEOw5od5D9nEiFBh8H2oCsXQk1EDVbXgo1JQfvPm2Svrri4fTffJptUeT93w0u7cUHK1auLaM9tzL239TOZM1WuJzpBNPQN44uuaA9+B0F/5Ucbggs7Lkv+z7fn3sWOzePe9qL/z645/uDoyrfxEKGH6Y+VYg9ubVQ1d1DKtO//YdVfJh2c99E2mBzl594n9Vp7/xcaVSrVafewWg4O0baoLyxEEAADj4ZyXxQuXrD30na95Sq9Xq2g+JIQnl/3vxd/UF7x47XJDc8f0ftQAAEXixMkIT+WGWDkGsFEAJAACNGi2seXDFhvbzo0dqpYfPHfbdlBc5v7pde3iW72Eu2K2lann17g8vvJnPBACDVgXpBY95W2PqxkoAgIL0ldN9F5GxRL0Fb37+7gHiyxRLCyLha9j++73YTENoAj+E2pirOqo1PQDeUNNdOPJvlfE//9iHkQYAzKjIwG2upB/+5vcjD+1KeaV4x78kjzxV3S7XAoA4N2PajnBHayMAQHrBg/89CHa+X7vzfbKPDqGA5I+FV8TS0fXjWlq9HVDDhd+WVEa/cvTNIJ3jX1l9llm01tvD7FPLlQAAhbnT9sPtamU1AMBaqYTsY0BoMfBHqAnil3sf3uogruro+/rfSy7Bwd//Kn+x3eNJm5lp9mKv/tsncHCbt7M43Ci/CACwM2fVtAWolZUAAFtXBclgMULz5JeZb8dc1dGoNUAO/Zvf/eYCFH/4q00+b6X5ffRz7NRMc2a/8c3Z6MPnRk+ANcu/AQDIz39s2tN72obrWgBIX58umG5ThBD4KdTGXNWh1hrslZ+9eQF2fvi77YE09+MCGladff90wa9r071NLYNSrgUAcX7GtDdU2NXKGwAAa1fghcoIzYh/1igQiNNHBkC1jX8u+eA8FLz9r9uj/PFJgT36CQAA2vNHj/b96tyD6Xz75NcrAQA2rUqe9s3eQdIZbIoQAvBbqD24quOb8xdg09EjO/3VeQrQ0U9T5dGf/uKjrvSdT8cqP+k4eObD9AdnxNSNlwAAoEPbPQyPvp/f0Ey06XKl2PlEaGb8MVAAEBkvfdCxWrRTccyDofL0R0o7mGovfFIp/sNHbz0+WfBeOVKwIjk5OfnojSn3oyJGCWbSpkMIAYDflsgTxK8E6AAACM6pOAT5/217VGUls+DwH2SH109oZeXs/cO+739zVjkYmbP78Buv7yuYMrFUqlsAAPnpyYHYGkV+4/F4jEZjb2+vxWLp6+vr7++3Wq02m81mszmdTqfT6Xa7PR4PjUYLCQlhMBgMBoPFYrFYLDabzeFwIiMjuVxudHQ0n8+ffmiecvy1RN7IynLJv7pYdjg9yJppCM2Wx+Pp7Ozs6urS6XTd3d0Gg4HP50dHR3O53MjISA6Hw2azw8PDmUxmWFgYg8EICQmh0Wgej8ftdjudTofDYbfbh4aGrFZrf39/X1+fxWLp7e01Go0CgSA2NlYkEi1dujQuLo7CGefrJfIeIpYWAHQc/sMrmGgITaWzs1Oj0Wi12nv37gmFwmXLlkkkktWrVwsEgpCQ6U8N0Wi00NDQ0NBQFos16QZut9tgMHR3d+t0OqVSqdfrExIS4uPjJRJJXFwc2UfvL7iYMUILTa1Wt7a2qlSqiIgIiUSSmJgYHx8fFhbm7891OBxarba9vV2j0QwODkql0pSUlORkipywHY0vDLWZ6lNe+OD9D85WqPqAKXh8+ytv/usra3BIEs1CR0eHUqlsamri8/kpKSkpKSlRUX650GkmTCZTa2tra2ur0WhMTU1NT08Xixf3yW8Mtdmx3z668/nTlvRkQaijo17VBwDALHj7yondmGtoGi6XS6FQ1NfXu1yu9PT0tLQ0ErPsYSaT6c6dO0qlkk6nZ2ZmZmVl0en+OivlVxhqs6G78IvfaF9973AO8Z9in/L0r/ccuWSHiIMf3z4SpDfooxkwm821tbVyuVwqlWZlZUkkErIrehSNRqNQKFQqVW5ubk5ODo/HI7uiWdaPoTZj9tq/noY9r4xbbtl04RePv/nNwk6iixYRo9F469athoaG3Nzc3NzcRRQQZrNZLpfL5fKMjIwnnniCz+eTXdFM+X30k0KYOT99ZeJrUfHxABARHx9A3QgUEPr6+qqrqxsaGp588sk33nhjqnHJgMXj8bZs2bJ27drbt2+fOnUqPT193bp1kZGL6b5t/9xRQHntDTXALPjdy9j3RKM8Hs+1a9eOHTvGZDIPHz68fv36RZdoo1gs1vr161955ZW+vr5jx45du3bNJ9PVLAzsfs7esPbs69tPLP/kQolP5/BFi5lSqbxy5UpCQsK6desWUWfz0dra2lgsVnh4eFVV1b179zZu3Lhq1fQzAJIFu59zYjeorv/tg/feuWAoOPJLvHUJAQCYTKbvv/++v7+/qKgowIcCZsVqtQ4MDEgkEhqN9k//9E8ajebKlSvNzc2bN28OqNHbh2FLbeYmTEjJTH/jk3NvYmMtqMnl8kuXLq1bt27t2rVk1+JjarWaw+HExsaOffGHH36oqqraunVrbm4u2QVOhKOfczWorf364/+QfVRtArxULZhZrdaKiorBwcGtW7eKRFQbArdYLJ2dnenpkyyhodPpLl26FBERUVhYyGazya70gdH4woGCWYqIz9nz1sdXz72SDAD2yr+Uq8iuCC08lUp18uTJmJiYAwcOUC/RAECn0011XCKR6MCBAzExMSdPnlSpAvE/fwy1OYnIees/fhUPAPVydR/ZxaCFVVVVVV5evmPHjg0bNpBdi1/09vbSaLTo6OhHbLNhw4YdO3aUl5dXVVWRXe9EGGpzlbl5rxgAuEw8qRY0PB7PxYsXOzo6fvazn0mllF01QqfTCYXCaTeTSqU/+9nPOjo6Ll68GFAXfGCozZlAkAyQmSzGUAsOfX19H3/8MZPJfP755zkcDtnl+Et3dzeTyeRyuTPZmMPhPP/880wm8+OPP+7rC5Q+C4baXNkblVcgZ28BZf9/jcbo6ur65JNPUlJSCgsLya7FjzwezyPOpk2lsLAwJSXlk08+6erqIvsIADDUZqJPXVtdr7UPj33NXvvu0bNbj777QjzZ1SG/a2tr+/TTT9evX79mzRqya/EvnU7H5XLnMKa5Zs2a9evXf/rpp21tbWQfBIba9Go/KNzz4q6CnI0vf3BRqTX19bXXnv6fe16/s/fce0G3oEwQam1tPXPmTHFxcWZmJtm1+JfT6Zzh2bRJZWZmFhcXnzlzprW1ldwDwevUpqf9+shb7/2tWt0HAExRem7+5p0vHNz3OF6eRn0tLS1fffXV3r17k5KSyK7F77RaLY1Gm+dUkW1tbZ9//vmuXbtWrFixwPXjxbcITUOtVn/xxRf79u2j0s1PU7HZbHfu3MnMzJz/DJEajebs2bPPPffcAk8UjhffIvQo9+7d++KLL5599tlgSDQA0Ol0S5cu9cmctxKJ5Nlnn/3iiy/u3btHyrFgqCE0kcFg+Oqrr4qLiyl8MdpYAwMDfX19cz6b9jCpVFpcXPzVV18ZDIaFPxwMNYTGsdlsFy5cWLduXVpaGtm1LBCimebbJUHT0tLWrVt34cIFm822wIeDoYbQOBcvXpRKpXl5eWQXskAsFovD4RAIfD/wlZeXJ5VKL168uMBHhKGG0APfffddWFjYpk2byC5k4RDNND/tfNOmTWFhYd99991CHhGGGkIj6urqtFrtM888Q3YhC8doNAKAXyd9fOaZZ7RabV1d3YIdFIYaQgAAer2+vLy8qKgoNDSIrqj2azONEBoaWlRUVF5ertfrF+agMNQQAgAoLy/fvn07JSdHm0p3dzeLxVqAlaJEIhExT9HCHBeGGkLw/fff8/n8nJwcsgtZOG63ewGaaaOys7P5fP7333+/AJ+FoYaCXVtbm1Kp3LZtG9mFLCAPWK3WqKioiIiI+e9shrZt26ZUKhfgjncMNRTsLl++vHXr1sW7Rudc0IDD4cTHL+gcMywWa+vWrZcvX/b3B2GooaB29epVoVCYmppKdiFBITU1VSgUXr161a+fgqGGgld3d/etW7eC6qo00m3atOnWrVvd3d3++wgMNRS8rl27tmHDBgrPzR2AOBzOhg0brl275r+PwBXaUZBqaWnp6+tbvXo12YUsjI47NfpBAKBzk8RwT2MZBgjlJmVLo+e951lbvXp1Y2NjS0uLn+Zcw5YaClLV1dX5+flkV7FgxGl5eUncUHBZ2jogQRgBAEwWCYlGyM/Pr66u9tPOsaWGglF9fX1YWFiwjQ8MOochQpiXJgaA6HlNcDtfqamptbW19fX1/pgkHVtqKBjdvHmT8quoPKTX5oBQxsJdmPZoa9asuXnzpj/2jKGGgk5DQ8OSJUuCYdmBcYy9A67QJVGkdTknSEpKWrJkSUNDg8/3jKGGgk5NTU3wTJf2wJBzGJgsPtlljJGbm1tTU+Pz3WKooeCiVqsBIEjm6R6ro38Q6AHT+QQAgJSUFPD+i/gQDhSg4FJXV5ednU12FSQQp+WROjYwuezs7Lq6Ot+uO4UtNRREent7Ozo6srKyyC4EjcjKyuro6Ojt7fXhPjHUUBBpaGig/ELrE4xd2DcwZWZm+na4AEMNBZHGxsZVq1aRXcWC6ujoMJlMZFfxKKtWrWpsbPThDjHUULBoa2tjs9k+XN0y8A0NDRmNxgC/uVUoFLLZbB/Os4ahhoJFU1NTsN1CoNPpRCKRT9Zd96vU1NSmpiZf7Q1DDQWLlpaWlStXkl3FwhkYGLBarYti1YWVK1e2tLT4am8YaigoaDSa6OhoLpdLdiELh2imkV3FjHC53OjoaI1G45O9YaihoKBWq317MVSAM5vNTqczJiaG7EJmKjk52VdX4WKooaDQ1tYWVDd7LqJmGiEpKclXYwUYaoj6zGazzWZbsOXgSGc0GkNDQ/267rrPLV261Gazmc3m+e8KQw1Rn1arXeCVk8i16JpphPj4eK1WO//9YKgh6uvo6BCLA/DGR7/Q6/Xh4eEBfm3apMRicUdHx/z3E+gXsCA0f/fv3w+o1dfdbrfL5XK5XG63e9iLeOzxeNxuN/EYPOD2uD0eD/Ei8d6xtz15PB4ajQYANC8AGBgYGL2WNSQkJDQ0lEajhYSEhoaGhIaGhoaGEi/S6XTiJ9lfxgNxcXF1dXXz308AHRJC/mC3200m00J2x9xut8PhcDqdTqfT4XAMDw8Tj10ul9PpHB4eBoDRTCEiZuxPBoMREhISEhJCo9GIn2MBAPETxgQc8cDj8fT09ERGRgoEArfbTUThaFDa7U7iKRGmLpeLeEyUQafTGQwGg8Gg0+lhYWGMMRbsexOJRCaTyW63M5nM+ewHQw1RnF6v99+tUTabzeFw2L0cDgeRYmFhYWOjgcViEXnBYDCI8PJHMQ6Ho7e3NyMjIywsbObvIjLX5eV0OgcHB4lQHj0WJpNJHBHTy09NPKFQqNfrExIS5rMTDDVEcQaDITY21ie7GhoaGhoaso1B/KmzWCwmk8lms4k/frL6dDqdTigUzirRAIDok071W4/HQ4Q18dNsNtvtdpvNFhoaymQyw8PDw8PDWSwWkdrzP4TY2FiDwYChhtCj9PT0zPka1KGhIavVOjg4ODQ0NDg4GBYWRvwN83g84i/ZT22uuZXa29vr84mVaDQacaQTXnc6nTabjUh5o9Fos9nodHrEGHNLdj6f39PTM8+aMdQQxZlMplnd8jngZbVaQ0ND2Ww2m82Ojo6OiIgInAh7mE6nW7p06SPaXL5FdKvHjrHa7fbBwcHBwUGdTjcwMMBisZYsWcLhcNhs9swbjzExMSqVap61YaghijOZTDwe79HbOByOvr6+vr6+/v5+4m81JiZGIpEE1ODgI/T39w8MDJB7ywRxrm30it/BwcGBgYHe3l6NRsNisSIjIyMjI6e90ITH481/9rfF8W+G0Nx4PB6LxTLVfexOp9NkMpnNZqvVyuVyuVxufHz8Qo73+QrRTCO7inGITihxNtNqtVosFq1WOzw8zOVyeTxeZGTkpO/icrkWi2X0UpW5wVBDVDYwMMDhcB7+C+nr6zMajSaTKSoqSigUBsTsHR13avSDAAB0blKWdObLc5rNZpfLFcj3rhNd+GXLlhGX1xBX2EZHR/P5/An/C6HRaBwOh/hXm/PHYaghKuvv71+yZMnYV3p7ew0Gw/DwsEAgSExMDKDTZOK0PHHHnRr9YBhrVgsOB2AzbSpMJlMkEolEIqvVajAY6uvrY2NjBQLB2AvTlixZ0t/fj6GG0OSGhoYiIkbWuuzv7+/q6vJ4PEKhcNqzbCSK4Mzijq6enp6QkJBAPpxJEW23uLi47u7uxsbGpUuXikQiokEdERExNDQ0n51jqCEqs9lsxOUI9+/fNxgMYrGYzw+kNcon6OgfhFBu+CzeodPpEhMTya57jhgMRlxcXGxsbEdHR3Nzc3x8PJvNZrFYNpttPrsNmLY3Qn5A3HNz7969gYGBVatWBXSiAfTa7EBfEj3jGvV6fURExGK8d30sBoORlJTE5/NbW1sHBgaYTKbdbp/PDrGlhqiMuNfHZrOtWLGC7FqmMDo+QIiY0Qm1rq4uvV5PnBkk+wB8QyAQhIaGajSa0NBQp9M5n11hSw1RmcvlstlsATuZWq+qrkY/GCHMy8vLy5NwQwFCGRHTvstisdy/f5+4Md5gMFgsFrKPwzeio6M5HI7D4XC5XPPZD7bUEJXZ7XYajaZUKsku5IG8vLyRR0bVPctwKDcp7cHAQOiSqAcNtZqampnscP6X4AeUoaGheXaoMdQQldntdp1O99xzz5FdyGSGnMMQyh1NsSHnMDBZY06oPYi/8SwWy9ggk0qlAXGdnS+oVKr5T0CA3U9EZZGRkUNDQ/O/R9ofem12GJNiHf2DM7yag8vlLlu2jJhdY9myZZRJNABoaWmJjIycz+0EgKGGqI1Opy9btqyiooLsQiYRzWIC2G1GAIBeVd3Y0YJpLV26NDs7Ozs7e7FcdjsTSqVSq9XGxMTM85ZbDDVEZQwGIyYmhs/nf/bZZ/O8pNP3xGnCiGGLpqampuYexHDpAIP6mpo6lZHswshQV1dXUVHx9NNPezyeed5+i+fUEJURFz0VFxdfv379j3/847Zt2zIyMsgu6gFxWt6Y/mawLA0zgdVqvXTpkslk2rdv37Jly+rq6nA6b4SmNHp5+vr16+Pj46uqqmpra9esWZOSkkJ2aQisVuutW7du3ry5du3aZ555hrgPd/QmkDnDUENUFh4ePjg4crIqMTExMTGxsbHxxo0b165dy87OzsrKWrBZFdFY9+/fr6ura2hoyMvLe/XVV8euuzw4OBgePps7xR6CoYaojJjHZuwrq1atWrVq1d27dxsaGr777ru0tLS0tDSpVEp2pUHBZDI1NzcrlUq3252RkXH48GE2mz1hm3nOOwQYaojaiHlsHp50cPny5cuXL9+yZUtzc/OtW7f+9re/SaXS5OTkpKSkh//M0Dx1dnbevXtXpVINDg6mpKRs2bJFIpFMuqXH43l4tqjZwlBDVEaj0YjJVCednGfJkiV5eXl5eXl9fX1tbW0qlerSpUscDichISEhISE+Pn6e/aBgptPpOrQd7ffa29vbo6OjJRLJli1bpp1QhJimeJ7XqWGoIYqLiooym82PnnEsMjIyKysrKysLADo6Ojo6On788cfy8nImk7l06VJiti+RSLQYZ/peMCaTSa/Xd3V1dXV13e+8H82PFovFaWlpTz311FSTdz/MbDaPPb82NxhqiOKioqJ6enqm6u88TCwWi8UjV1cYDIauri6dTtfU1NTd3c3hcAQCQUxMDHHtG5/PD9pxhoGBAaPR2NPT09PTY+g2GHoM4eHhQqFQJBKtWbNm6dKlc2vkGo1GDDWEphETEzPn26QEAoFAIHjssceIpz09PQaDoaenp7m52Wg09vb2LlmyJCoqKioqisfj8Xg8LpcbGRk5OtcuBQwPD1sslr6+PrPZbLFYTF5hYWHEIgMxMTGpqakCgcAnRz2fRVpHYaghihMIBL6apYNoo419pbe31+x1//594u/fbrdzOJzIyMglXuHh4cQE1hEREeHh4QG18p7NZrNaraPLNlutVmLZ0/7+/v7+frvdHhkZSYQ1j8dbsWIFkeB+OtvY3d2dlpY2z50E0JeLkD8IhUK9Xu+nnUdHR0dHT5zV0el0EgtxEj+tVmt3dzcRGcRi76PLnrNYLCaTGRYWFhYWxmQyGV50Op1Op4eGhtLp9JCQkNDQ0BAvABhdLMbj8RA/3W438dPtdg97uVwul8vldDqJnw6Hw+Fw2L1sXkwmMyIiIiI8IoIdQSSvSCRis9kcDodI5IX8x9Lr9UKhcJ47wVBDFEessKvT6UQi0cJ8IoPBmDTsRjmdzqGhIZvNRuQLkTUOh8PpcA4ODhIx5HK5iGAaHh52u93uYbfbM5Jco/vxeDxEwNFotNDQUBqNNpqADAaD+ElEJIPBiIiIIKKT+BkeHk6k6jyHGn1Ip9NFRUXN8x4pwFBDwWDZsmWdnZ0LFmrTIrJm5mOCQaKzs3PZsmXz3w/O0oGoTywWEwvookDW0dExOu48HxhqiPri4+O1Wi3ZVaBpaLVan6wmgaGGqI/H47FYrK6uLrILQVPq6upisVg+WZUZQw0FhaSkpLa2NrKrQFNqa2tLSkryya4w1FBQSE5OVqvVZFeBpqRWq5OTk32yKww1FBQkEklvby9llsikGIvF0tvbO/Nb2R4NQw0FixUrVjQ3N5NdBZpEc3PzihUrfLU3DDUULFJTU5uamsiuAk2iqakpNTXVV3vDUEPBIikpyWq1+u+WKTQ3er3earX6apQAMNRQUFm1alVjYyPZVaBxGhsbV61a5cMdYqihIJKRkVFfX092FWic+vp6365biKGGgkh0dLRYLFYoFGQXgkYoFAqxWPyIm//nAEMNBZfs7Oy6ujqyq0Aj6urqsrOzfbtPDDUUXIgrPFtbW8kuBIFKpQLvv4gPYaihoJOXlyeXy8muAkFNTU1eXp7Pdzv/UDNU/unIL3Ztz0lOTs4sfue2HQCg/cKRPTnJyenF//Mbw8J/VQg9UkZGxsDAAN4KSq62traBgQHfDhEQaMSMwATNvfuShDlO0lb7bsGe/9TC1qMXDxjKezcfjP9+7/PvaKHgaNWJfXOfm09RKitrH/9S4o6S/dkze3ddqawcikr2Z40+8Pn3hxan+vr6hoaG/fv3k11I8CotLc3IyMjMzPTVDkfjy2cz38YsFQNo4dKJv/3zhbc2MZXHfkHMX8Wa9xJiY1NM/+3xk+WlimyMJzQvmZmZcrnctxeyo5lrampyOBw+TLSxfHZOrUNdDQA5v/vgrceZACBOzo8EZvobb2wX+LJc4VP5idCurJvl27L3l2AzDY2Xn59fXV1NdhVBqrq6Oj8/308791VLTSmvAID4zY9LieeRhUdr1Uf9/dUoPpOVaYiHvNyXXisUjXsxUeJd437Sfqiu4vipu8tfeq1QNGY/3NxDrxfOdzUbtBisWLGivr7+5s2bq1evJruW4HLz5s3IyEgf3sE+gY9aaroGeQcAbM9d6d+vQ/9tdTskpmcDAEBdaZkp91BJSUlJSZHELK9UjLyoSSwqKSkpOcQ3tc9op2P3EyU//y3eGxgsNmzYcO3atf7+frILCSL9/f3Xrl3bsGGD/z7CNy01e7OyEgCKc1fN+wzaw9rLZbLy0We83Je8Hcns/SXZxCO93gQQBQCgaGoHSVEWAICwMD9RXj6zz7DIL9cV7s+GrBdKsJcaPGJjY5944okrV64888wzZNcSLK5cufLEE0/Exsb67yN8E2pqZSUApOcm+2PNL+9Agb7i2El5VH7h6FiqruL4KbkZAIDH4xIv6fUm4Em9W4j4PDBO/wHZ+0ugVOaNzlmMrqLFb+PGjSdOnMARg4XR1NSk1+v9/b8Qn3Q/tQ3XtQDMzZlSf5YqLHy9KFFTdtzbPVRUys2SopKSkpKS1/KjRrYRRoHZqBt5h85onuG+s/eXlJSUlJQcyuO1l5finYFBZcuWLZcuXbLZbGQXQnE2m+3SpUtbtmzx9wf5ItT6lNU3AGD7Kh/f7fCwrP07Es015yu8qQUmvR4AdBXVGu8WqYmgqSY2UDQ9dE5NxOd5B0/19XfNAACg//a47FgFkZRCARe4/EBZ8xYtiKSkpPT09O+++47sQijuu+++S09P9+G8aVPxRai1yL8BgDX56Quw4HT2llyuWX6qVAGQVZDLs8hPymSy85CfxxsJuOz9h/JAfkomk8mqIZE34e2iwnwJtJfLZDLZeVhODI4Kn3qtKEp+UiaTyWSyckvubhz9DDqbN282Go14o7v/1NbWGo3GzZs3L8Bn+eCOAtVfi7f/L2X8ry9Wvp6+kF8TQj6k1+tPnjz50ksviUTYUvcxnU536tSpQ4cOCYV+bDCMxpfPbpNCaLGrq6urra396U9/Ghrqh1H8YDU8PPzXv/41JyfH51MMTTAaXzhLB0IjsrOz4+Pj//73v5NdCKX8/e9/j4+P93eijYWhhtAD27ZtczgcV65cIbsQirhy5YrD4di2bdtCfiiGGkLjFBcXq1SqmpoasgtZ9GpqalQqVXFx8QJ/LoYaQuOwWKydO3dWVVXduXOH7FoWsTt37lRVVe3cuZPFYi3wR2OoITSRQCDYtWvXxYsXifmm0WypVKqLFy/u2rVLIPDpLD0zg6GG0CQSEhKee+65L7/8UqPRkF3LIqPRaL788svnnnsuISGBlAIw1BCaXHJy8q5du86ePYsTf89cW1vb2bNnd+3a5fPlVGYOQw2hKa1YsWL37t1nzpxpaWkhu5ZFoKWl5cyZM7t37/bfXGkzgaGG0KOkpKQ8//zzFy9exKXdH62+vv7ixYvPP/98SkoKuZVgqCE0jaSkpJ/85CfXr1+/ceMG2bUEqBs3bly/fv0nP/nJAtyvPi0MNYSmt3Tp0gMHDrS2tlZUVJBdS8CpqKhobW09cODA0qVLya4FAEMNoRmKjIx88cUX7Xb7mTNncAZwQn9//5kzZ+x2+4svvhgZuQCz9MwIhhpCM0Wj0YqLi8Vi8V/+8he8hE2lUv3lL38Ri8XFxcU0Go3sch7w2bqfCAWJdevWCYXC8vLyrKwsvy4gEsiuXbumUCh27Nghlfp1vuu5wKmHEJoLq9VaUVExODi4devWoJqCTafTXbp0KSIiorCwkM1mk13OAzj1EELzwmazd+/enZaWdvr06R9++IHschbIDz/8cPr06bS0tN27dwdUoo2FLTWE5sVkMn3//ff9/f2bNm2SSCRkl+MvGo3mypUrHA5n8+bNUVFRZJczWYXe+MJzagjNS1RU1LPPPtvY2FhWVpaQkLBu3Toej0d2Ub5kNpurqqru3bu3adOm9PRFMGU/ttQQ8g2Px3P9+vUffvjhySefXLNmzcJPueNzNpvtxo0b//jHP9auXbt+/fqAGuJ8GK5RgJBf9PX1VVdXNzQ0PPnkk48//vgijTabzXb79u1//OMfGRkZ+fn5gXMN2iNgqCHkR0aj8datWw0NDbm5ubm5uYuoQ2o2m+VyuVwuz8jIeOKJJ/h8PtkVzRSGGkJ+Zzaba2tr5XK5VCrNysoK8GEEjUajUChUKlVubm5OTs4iCuKR+jHUEFoYLpdLoVDU19e7XK709PS0tLSAGj00mUx37txRKpV0Oj0zMzMrK4tOX5TjhxhqCC20jo4OpVLZ1NTE5/NTUlJSUlJITDeTydTa2tra2mo0GlNTU9PT08ViMdnf0LxgqCFEGrVa3draqlKpIiIiJBJJYmJifHx8WFiYvz/X4XBotdr29naNRjM4OCiVSlNSUkicota3MNQQIl9nZ6dGo9Fqtffu3RMKhcuWLROJRLGxsQKBICTEB3f7uN1ug8HQ3d2t0+nu37+v1+sTEhLi4+MlEklcXBzZR+9jePEtQuSLi4sjwsXj8XR2dnZ1dWk0mps3bxoMBj6fHx0dzeVyIyMjORwOm80ODw9nMplhYWEMBiMkJIRGo3k8Hrfb7XQ6HQ6H3W4fGhqyWq39/f19fX0Wi6W3t9doNAoEgtjYWJFIlJaWFhcXF+DXmvkEhhpC5KPRaGKxePSslsfjMRqNvb29Foulr6/v/v37VqvVZrPZbDan0+l0Ot1ut8fjodFoISEhDAaDwWCwWCwWi8VmszkcDpfLTUhIiI6O5vP5wZBiE2CoIRRwaDRaTExMTEwM2YUsSjhLB0KIUjDUEEKUgqGGEKIUDDWEEKVgqCGEKAVDDSFEKRhqCCFKwVBDCFEKhhpCiFIw1BBClIKhhhCiFAw1hBClYKghhCgFQw0hRCkYagghSsFQQwhRCoYaQohSMNQQQpSCoYYQohQMNYQQpWCoIYQoBUMNIUQpGGoIIUrBUEMIUQqGGkKIUjDUEEKUgqGGEKIUDDWEEKVgqCGEKAVDDSFEKRhqCCFKwVBDCFEKhhpCiFIw1BBClIKhhhCiFAw1hBClYKghhCgFQw0hRCkYagghSsFQQwhRCoYaQohSMNQQQpSCoYYQohQMNYQQpWCoIYQoBUMNIUQpGGoIIUqZGGoej4fskhBCaHbGBte4UGMw6E6ni+zyEEJodpxOF4NBJx6PCzUmM2zIZie7PIQQmp0hm53JDCMejws1Djuif8CKPVCE0CLi8Xj6B6wcdgTxdGJLjcViGnstZBeJEEIzZey1sFjMyVtqABATzRseHu4xmrG9hhAKcB6Pp8doHh4ejonmjb5ImzS8enrNNpuds4QdzmIyGHQajUZ28QghNMLj8TidriGbvX/AymIxxyYaTBVqAGC3O/qtg3a7A8dDEUKBhsGgM5lhHHbEaK9zFA27mQghKsE7ChBClIKhhhCilP8PhB0q12RllV8AAAAldEVYdGRhdGU6Y3JlYXRlADIwMjQtMDQtMDRUMTg6MDk6MTIrMDA6MDANSLzxAAAAJXRFWHRkYXRlOm1vZGlmeQAyMDI0LTA0LTA0VDE4OjA5OjEyKzAwOjAwfBUETQAAACh0RVh0ZGF0ZTp0aW1lc3RhbXAAMjAyNC0wNC0wNFQxODowOToxMyswMDowMI13LiYAAAAASUVORK5CYII=;" vertex="1" parent="7">
                    <mxGeometry x="430" y="90" width="320" height="260.19" as="geometry"/>
                </mxCell>
            </root>
        </mxGraphModel>
    </diagram>
</mxfile>